<svg id="visual" viewBox="0 0 960 540" width="960" height="540" xmlns="http://www.w3.org/2000/svg" xmlns:xlink="http://www.w3.org/1999/xlink" version="1.1"><path d="M0 136L26.7 135.2C53.3 134.3 106.7 132.7 160 130C213.3 127.3 266.7 123.7 320 132.7C373.3 141.7 426.7 163.3 480 164.2C533.3 165 586.7 145 640 149.5C693.3 154 746.7 183 800 182.2C853.3 181.3 906.7 150.7 933.3 135.3L960 120L960 0L933.3 0C906.7 0 853.3 0 800 0C746.7 0 693.3 0 640 0C586.7 0 533.3 0 480 0C426.7 0 373.3 0 320 0C266.7 0 213.3 0 160 0C106.7 0 53.3 0 26.7 0L0 0Z" fill="#ffffff"></path><path d="M0 352L26.7 350.2C53.3 348.3 106.7 344.7 160 344.7C213.3 344.7 266.7 348.3 320 346.5C373.3 344.7 426.7 337.3 480 332C533.3 326.7 586.7 323.3 640 334.2C693.3 345 746.7 370 800 375.3C853.3 380.7 906.7 366.3 933.3 359.2L960 352L960 118L933.3 133.3C906.7 148.7 853.3 179.3 800 180.2C746.7 181 693.3 152 640 147.5C586.7 143 533.3 163 480 162.2C426.7 161.3 373.3 139.7 320 130.7C266.7 121.7 213.3 125.3 160 128C106.7 130.7 53.3 132.3 26.7 133.2L0 134Z" fill="#6795b8"></path><path d="M0 455L26.7 449.5C53.3 444 106.7 433 160 433.8C213.3 434.7 266.7 447.3 320 447.3C373.3 447.3 426.7 434.7 480 429.3C533.3 424 586.7 426 640 431.5C693.3 437 746.7 446 800 447.7C853.3 449.3 906.7 443.7 933.3 440.8L960 438L960 350L933.3 357.2C906.7 364.3 853.3 378.7 800 373.3C746.7 368 693.3 343 640 332.2C586.7 321.3 533.3 324.7 480 330C426.7 335.3 373.3 342.7 320 344.5C266.7 346.3 213.3 342.7 160 342.7C106.7 342.7 53.3 346.3 26.7 348.2L0 350Z" fill="#6795b8"></path><path d="M0 541L26.7 541C53.3 541 106.7 541 160 541C213.3 541 266.7 541 320 541C373.3 541 426.7 541 480 541C533.3 541 586.7 541 640 541C693.3 541 746.7 541 800 541C853.3 541 906.7 541 933.3 541L960 541L960 436L933.3 438.8C906.7 441.7 853.3 447.3 800 445.7C746.7 444 693.3 435 640 429.5C586.7 424 533.3 422 480 427.3C426.7 432.7 373.3 445.3 320 445.3C266.7 445.3 213.3 432.7 160 431.8C106.7 431 53.3 442 26.7 447.5L0 453Z" fill="#ffffff"></path></svg>