<svg id="visual" viewBox="0 0 960 540" width="960" height="540" xmlns="http://www.w3.org/2000/svg" xmlns:xlink="http://www.w3.org/1999/xlink" version="1.1"><rect x="0" y="0" width="960" height="540" fill="#ffffff"></rect><path d="M0 72L20 62.8C40 53.7 80 35.3 120 28.2C160 21 200 25 240 31.2C280 37.3 320 45.7 360 43.7C400 41.7 440 29.3 480 24C520 18.7 560 20.3 600 28.2C640 36 680 50 720 57C760 64 800 64 840 57.5C880 51 920 38 940 31.5L960 25L960 0L940 0C920 0 880 0 840 0C800 0 760 0 720 0C680 0 640 0 600 0C560 0 520 0 480 0C440 0 400 0 360 0C320 0 280 0 240 0C200 0 160 0 120 0C80 0 40 0 20 0L0 0Z" fill="#4381aa" stroke-linecap="round" stroke-linejoin="miter"></path></svg>