<svg id="visual" viewBox="0 0 960 540" width="960" height="540" xmlns="http://www.w3.org/2000/svg" xmlns:xlink="http://www.w3.org/1999/xlink" version="1.1"><rect x="0" y="0" width="960" height="540" fill="#ffffff"></rect><path d="M0 409L26.7 358.7C53.3 308.3 106.7 207.7 160 217.2C213.3 226.7 266.7 346.3 320 347.3C373.3 348.3 426.7 230.7 480 199.8C533.3 169 586.7 225 640 235C693.3 245 746.7 209 800 195.5C853.3 182 906.7 191 933.3 195.5L960 200L960 0L933.3 0C906.7 0 853.3 0 800 0C746.7 0 693.3 0 640 0C586.7 0 533.3 0 480 0C426.7 0 373.3 0 320 0C266.7 0 213.3 0 160 0C106.7 0 53.3 0 26.7 0L0 0Z" fill="#4381aa" stroke-linecap="round" stroke-linejoin="miter"></path></svg>