<svg xmlns="http://www.w3.org/2000/svg" xmlns:xlink="http://www.w3.org/1999/xlink" width="97.03999999999999"
     height="19.2">
    <path fill="white" stroke="white"
          d="M1.65 14.96L3.02 14.96L3.02 10.05L6.67 10.05L6.67 8.94L3.02 8.94L3.02 5.07L7.25 5.07L7.41 3.95L1.65 3.95ZM10.05 2.58C9.49 2.58 9.10 2.98 9.10 3.50C9.10 4.03 9.49 4.43 10.05 4.43C10.62 4.43 11.01 4.03 11.01 3.50C11.01 2.98 10.62 2.58 10.05 2.58ZM10.74 6.54L9.39 6.54L9.39 14.96L10.74 14.96ZM17.76 6.35C16.62 6.35 15.74 6.94 15.12 7.81L15.01 6.54L13.86 6.54L13.86 14.96L15.20 14.96L15.20 8.96C15.78 8.03 16.45 7.41 17.44 7.41C18.30 7.41 18.83 7.82 18.83 9.12L18.83 14.96L20.18 14.96L20.18 8.93C20.18 7.33 19.30 6.35 17.76 6.35ZM28.26 2.99L28.26 7.41C27.71 6.83 26.99 6.35 25.97 6.35C23.90 6.35 22.67 8.21 22.67 10.78C22.67 13.42 23.81 15.15 25.84 15.15C26.91 15.15 27.76 14.61 28.29 13.78L28.43 14.96L29.60 14.96L29.60 3.15ZM26.11 14.08C24.85 14.08 24.11 13.01 24.11 10.77C24.11 8.53 24.94 7.42 26.26 7.42C27.14 7.42 27.74 7.87 28.26 8.56L28.26 12.75C27.70 13.60 27.09 14.08 26.11 14.08ZM32.16 10.53L36.62 10.53L36.62 9.38L32.16 9.38ZM45.14 14.96L46.61 14.96L43.06 3.95L41.30 3.95L37.73 14.96L39.14 14.96L40 12.14L44.29 12.14ZM40.34 11.01L42.14 5.10L43.94 11.01ZM47.73 10.53L52.19 10.53L52.19 9.38L47.73 9.38ZM58.64 3.76C56.14 3.76 54.10 5.71 54.10 9.46C54.10 13.15 56.02 15.15 58.66 15.15C60.11 15.15 61.14 14.56 61.76 13.94L61.07 13.06C60.43 13.54 59.76 13.97 58.70 13.97C56.94 13.97 55.57 12.67 55.57 9.46C55.57 6.08 56.99 4.91 58.72 4.91C59.52 4.91 60.18 5.17 60.88 5.73L61.63 4.83C60.77 4.14 60.00 3.76 58.64 3.76ZM66.75 6.35C64.40 6.35 63.04 8.13 63.04 10.77C63.04 13.44 64.38 15.15 66.74 15.15C69.09 15.15 70.45 13.38 70.45 10.74C70.45 8.05 69.12 6.35 66.75 6.35ZM66.75 7.44C68.21 7.44 69.01 8.51 69.01 10.74C69.01 12.99 68.19 14.06 66.74 14.06C65.28 14.06 64.48 12.99 64.48 10.77C64.48 8.51 65.31 7.44 66.75 7.44ZM78.53 13.02L78.53 9.12C78.53 7.38 77.62 6.35 75.62 6.35C74.69 6.35 73.78 6.54 72.77 6.93L73.10 7.92C73.97 7.62 74.74 7.46 75.38 7.46C76.59 7.46 77.18 7.94 77.18 9.18L77.18 9.86L75.81 9.86C73.50 9.86 72.16 10.82 72.16 12.61C72.16 14.11 73.15 15.15 74.82 15.15C75.86 15.15 76.75 14.75 77.34 13.86C77.57 14.70 78.10 15.04 78.91 15.15L79.23 14.21C78.78 14.05 78.53 13.81 78.53 13.02ZM75.12 14.13C74.11 14.13 73.58 13.57 73.58 12.54C73.58 11.34 74.42 10.75 75.98 10.75L77.18 10.75L77.18 12.75C76.70 13.66 76.03 14.13 75.12 14.13ZM84.66 6.35C82.40 6.35 81.01 8.13 81.01 10.82C81.01 13.54 82.42 15.15 84.66 15.15C85.62 15.15 86.46 14.83 87.18 14.22L86.56 13.34C85.94 13.78 85.42 14 84.70 14C83.33 14 82.45 13.04 82.45 10.80C82.45 8.54 83.33 7.47 84.70 7.47C85.42 7.47 85.97 7.68 86.53 8.10L87.18 7.25C86.42 6.61 85.63 6.35 84.66 6.35ZM93.15 6.35C92.06 6.35 91.22 6.90 90.59 7.74L90.59 3.01L89.25 3.17L89.25 14.96L90.59 14.96L90.59 8.94C91.17 8.03 91.86 7.41 92.82 7.41C93.68 7.41 94.22 7.82 94.22 9.12L94.22 14.96L95.57 14.96L95.57 8.93C95.57 7.34 94.67 6.35 93.15 6.35Z"/>
</svg>
